<svg viewBox="0 0 32 32" xmlns="http://www.w3.org/2000/svg">
  <circle cx="16" cy="16" r="16" fill="#E84142"/>
  <path fill="white" fill-rule="evenodd" clip-rule="evenodd" d="M17.618 8.493c-.36-.658-.99-.993-1.618-.993-.629 0-1.258.335-1.618.993L7.26 20.856C6.9 21.514 6.9 22.185 7.26 22.843c.36.659.99.993 1.618.993H12.1c.808 0 1.348-.489 1.708-1.147l2.192-3.923 2.192 3.923c.36.658.9 1.147 1.708 1.147h3.222c.629 0 1.258-.334 1.618-.993.36-.658.36-1.329 0-1.987L17.618 8.493zm-1.618 3.46l3.58 6.41h-2.16l-1.42-2.54-1.42 2.54H12.42l3.58-6.41z"/>
</svg>
